<?xml version="1.0" standalone="no"?><svg xmlns:xlink="http://www.w3.org/1999/xlink" xmlns="http://www.w3.org/2000/svg" viewBox="0 0 1000 545.4548248168118" preserveAspectRatio="xMaxYMax slice"><g transform="scale(1.5364924642727091)"><rect x="0" y="0" width="650.8333333333333" height="355" fill="#191a1a"/><rect x="0" y="59.166666666666664" width="59.166666666666664" height="59.166666666666664" fill="#191a1a"/><rect x="295.8333333333333" y="59.166666666666664" width="59.166666666666664" height="59.166666666666664" fill="#191a1a"/><rect x="295.83" y="59.17" width="29.58" height="29.58" fill="#912336"/><rect x="295.83" y="59.17" width="29.58" height="29.58" fill="#261b1d"/><rect x="355" y="59.166666666666664" width="59.166666666666664" height="59.166666666666664" fill="#191a1a"/><rect x="355" y="88.75" width="29.58" height="29.58" fill="#912337"/><rect x="355" y="88.75" width="29.58" height="29.58" fill="#191a1a"/><rect x="384.58" y="88.75" width="29.58" height="29.58" fill="#321c20"/><rect x="384.58" y="88.75" width="29.58" height="29.58" fill="#191a1a"/><rect x="532.5" y="59.166666666666664" width="59.166666666666664" height="59.166666666666664" fill="#191a1a"/><rect x="532.5" y="59.17" width="29.58" height="29.58" fill="#2f1c1f"/><rect x="532.5" y="59.17" width="29.58" height="29.58" fill="#191a1a"/><rect x="532.5" y="88.75" width="29.58" height="29.58" fill="#6b202d"/><rect x="532.5" y="88.75" width="29.58" height="29.58" fill="#66202c"/><rect x="0" y="118.33333333333333" width="59.166666666666664" height="59.166666666666664" fill="#191a1a"/><rect x="177.5" y="118.33333333333333" width="59.166666666666664" height="59.166666666666664" fill="#191a1a"/><rect x="177.5" y="118.33" width="29.58" height="29.58" fill="#6d202e"/><rect x="177.5" y="118.33" width="29.58" height="29.58" fill="#2d1b1f"/><rect x="207.08" y="147.92" width="29.58" height="29.58" fill="#191a1a"/><rect x="207.08" y="147.92" width="29.58" height="29.58" fill="#191a1a"/><rect x="295.8333333333333" y="118.33333333333333" width="59.166666666666664" height="59.166666666666664" fill="#191a1a"/><rect x="325.42" y="118.33" width="29.58" height="29.58" fill="#421d24"/><rect x="325.42" y="118.33" width="29.58" height="29.58" fill="#6d202e"/><rect x="295.83" y="147.92" width="29.58" height="29.58" fill="#191a1a"/><rect x="295.83" y="147.92" width="29.58" height="29.58" fill="#191a1a"/><rect x="355" y="118.33333333333333" width="59.166666666666664" height="59.166666666666664" fill="#191a1a"/><rect x="384.58" y="118.33" width="29.58" height="29.58" fill="#191a1a"/><rect x="384.58" y="118.33" width="29.58" height="29.58" fill="#191a1a"/><rect x="414.16666666666663" y="118.33333333333333" width="59.166666666666664" height="59.166666666666664" fill="#191a1a"/><rect x="414.17" y="118.33" width="29.58" height="29.58" fill="#191a1a"/><rect x="414.17" y="118.33" width="29.58" height="29.58" fill="#191a1a"/><rect x="414.17" y="147.92" width="29.58" height="29.58" fill="#962338"/><rect x="414.17" y="147.92" width="29.58" height="29.58" fill="#191a1a"/><rect x="532.5" y="118.33333333333333" width="59.166666666666664" height="59.166666666666664" fill="#191a1a"/><rect x="532.5" y="118.33" width="29.58" height="29.58" fill="#191a1a"/><rect x="532.5" y="118.33" width="29.58" height="29.58" fill="#972338"/><rect x="562.08" y="147.92" width="29.58" height="29.58" fill="#191a1a"/><rect x="562.08" y="147.92" width="29.58" height="29.58" fill="#191a1a"/><rect x="591.6666666666666" y="118.33333333333333" width="59.166666666666664" height="59.166666666666664" fill="#191a1a"/><rect x="621.25" y="147.92" width="29.58" height="29.58" fill="#66202c"/><rect x="621.25" y="147.92" width="29.58" height="29.58" fill="#972338"/><rect x="59.166666666666664" y="177.5" width="59.166666666666664" height="59.166666666666664" fill="#191a1a"/><rect x="88.75" y="177.5" width="29.58" height="29.58" fill="#4b1e26"/><rect x="88.75" y="177.5" width="29.58" height="29.58" fill="#191a1a"/><rect x="59.17" y="207.08" width="29.58" height="29.58" fill="#191a1a"/><rect x="59.17" y="207.08" width="29.58" height="29.58" fill="#191a1a"/><rect x="118.33333333333333" y="177.5" width="59.166666666666664" height="59.166666666666664" fill="#191a1a"/><rect x="147.92" y="177.5" width="29.58" height="29.58" fill="#9c2339"/><rect x="147.92" y="177.5" width="29.58" height="29.58" fill="#2b1b1e"/><rect x="147.92" y="207.08" width="29.58" height="29.58" fill="#191a1a"/><rect x="147.92" y="207.08" width="29.58" height="29.58" fill="#191a1a"/><rect x="177.5" y="177.5" width="59.166666666666664" height="59.166666666666664" fill="#191a1a"/><rect x="207.08" y="177.5" width="29.58" height="29.58" fill="#191a1a"/><rect x="207.08" y="177.5" width="29.58" height="29.58" fill="#832233"/><rect x="177.5" y="207.08" width="29.58" height="29.58" fill="#1b1a1a"/><rect x="177.5" y="207.08" width="29.58" height="29.58" fill="#191a1a"/><rect x="236.66666666666666" y="177.5" width="59.166666666666664" height="59.166666666666664" fill="#191a1a"/><rect x="236.67" y="177.5" width="29.58" height="29.58" fill="#481d25"/><rect x="236.67" y="177.5" width="29.58" height="29.58" fill="#581f29"/><rect x="266.25" y="177.5" width="29.58" height="29.58" fill="#191a1a"/><rect x="266.25" y="177.5" width="29.58" height="29.58" fill="#70202f"/><rect x="236.67" y="207.08" width="29.58" height="29.58" fill="#9f243a"/><rect x="236.67" y="207.08" width="29.58" height="29.58" fill="#4e1e27"/><rect x="473.3333333333333" y="177.5" width="59.166666666666664" height="59.166666666666664" fill="#191a1a"/><rect x="473.33" y="177.5" width="29.58" height="29.58" fill="#191a1a"/><rect x="473.33" y="177.5" width="29.58" height="29.58" fill="#962338"/><rect x="473.33" y="207.08" width="29.58" height="29.58" fill="#191a1a"/><rect x="473.33" y="207.08" width="29.58" height="29.58" fill="#191a1a"/><rect x="502.92" y="207.08" width="29.58" height="29.58" fill="#952337"/><rect x="502.92" y="207.08" width="29.58" height="29.58" fill="#7c2131"/><rect x="591.6666666666666" y="177.5" width="59.166666666666664" height="59.166666666666664" fill="#191a1a"/><rect x="591.67" y="177.5" width="29.58" height="29.58" fill="#191a1a"/><rect x="591.67" y="177.5" width="29.58" height="29.58" fill="#822233"/><rect x="621.25" y="177.5" width="29.58" height="29.58" fill="#191a1a"/><rect x="621.25" y="177.5" width="29.58" height="29.58" fill="#191a1a"/><rect x="591.67" y="207.08" width="29.58" height="29.58" fill="#752130"/><rect x="591.67" y="207.08" width="29.58" height="29.58" fill="#812133"/><rect x="621.25" y="207.08" width="29.58" height="29.58" fill="#191a1a"/><rect x="621.25" y="207.08" width="29.58" height="29.58" fill="#191a1a"/><rect x="59.166666666666664" y="236.66666666666666" width="59.166666666666664" height="59.166666666666664" fill="#191a1a"/><rect x="59.17" y="236.67" width="29.58" height="29.58" fill="#a2243b"/><rect x="59.17" y="236.67" width="29.58" height="29.58" fill="#191a1a"/><rect x="88.75" y="236.67" width="29.58" height="29.58" fill="#191a1a"/><rect x="88.75" y="236.67" width="29.58" height="29.58" fill="#191a1a"/><rect x="59.17" y="266.25" width="29.58" height="29.58" fill="#491d26"/><rect x="59.17" y="266.25" width="29.58" height="29.58" fill="#411d23"/><rect x="118.33333333333333" y="236.66666666666666" width="59.166666666666664" height="59.166666666666664" fill="#191a1a"/><rect x="118.33" y="236.67" width="29.58" height="29.58" fill="#862234"/><rect x="118.33" y="236.67" width="29.58" height="29.58" fill="#191a1a"/><rect x="147.92" y="236.67" width="29.58" height="29.58" fill="#7f2132"/><rect x="147.92" y="236.67" width="29.58" height="29.58" fill="#191a1a"/><rect x="118.33" y="266.25" width="29.58" height="29.58" fill="#191a1a"/><rect x="118.33" y="266.25" width="29.58" height="29.58" fill="#191a1a"/><rect x="147.92" y="266.25" width="29.58" height="29.58" fill="#191a1a"/><rect x="147.92" y="266.25" width="29.58" height="29.58" fill="#4c1e26"/><rect x="177.5" y="236.66666666666666" width="59.166666666666664" height="59.166666666666664" fill="#191a1a"/><rect x="177.5" y="236.67" width="29.58" height="29.58" fill="#191a1a"/><rect x="177.5" y="236.67" width="29.58" height="29.58" fill="#191a1a"/><rect x="207.08" y="236.67" width="29.58" height="29.58" fill="#191a1a"/><rect x="207.08" y="236.67" width="29.58" height="29.58" fill="#191a1a"/><rect x="207.08" y="266.25" width="29.58" height="29.58" fill="#6f202f"/><rect x="207.08" y="266.25" width="29.58" height="29.58" fill="#191a1a"/><rect x="236.66666666666666" y="236.66666666666666" width="59.166666666666664" height="59.166666666666664" fill="#191a1a"/><rect x="236.67" y="236.67" width="29.58" height="29.58" fill="#5a1f29"/><rect x="236.67" y="236.67" width="29.58" height="29.58" fill="#211b1c"/><rect x="266.25" y="236.67" width="29.58" height="29.58" fill="#4d1e26"/><rect x="266.25" y="236.67" width="29.58" height="29.58" fill="#251b1d"/><rect x="236.67" y="266.25" width="29.58" height="29.58" fill="#942337"/><rect x="236.67" y="266.25" width="29.58" height="29.58" fill="#191a1a"/><rect x="266.25" y="266.25" width="29.58" height="29.58" fill="#191a1a"/><rect x="266.25" y="266.25" width="29.58" height="29.58" fill="#66202c"/><rect x="295.8333333333333" y="236.66666666666666" width="59.166666666666664" height="59.166666666666664" fill="#191a1a"/><rect x="295.83" y="236.67" width="29.58" height="29.58" fill="#7d2132"/><rect x="295.83" y="236.67" width="29.58" height="29.58" fill="#982338"/><rect x="325.42" y="236.67" width="29.58" height="29.58" fill="#742130"/><rect x="325.42" y="236.67" width="29.58" height="29.58" fill="#9f243a"/><rect x="295.83" y="266.25" width="29.58" height="29.58" fill="#191a1a"/><rect x="295.83" y="266.25" width="29.58" height="29.58" fill="#291b1e"/><rect x="325.42" y="266.25" width="29.58" height="29.58" fill="#191a1a"/><rect x="325.42" y="266.25" width="29.58" height="29.58" fill="#792131"/><rect x="355" y="236.66666666666666" width="59.166666666666664" height="59.166666666666664" fill="#191a1a"/><rect x="355" y="236.67" width="29.58" height="29.58" fill="#9c2339"/><rect x="355" y="236.67" width="29.58" height="29.58" fill="#191a1a"/><rect x="355" y="266.25" width="29.58" height="29.58" fill="#191a1a"/><rect x="355" y="266.25" width="29.58" height="29.58" fill="#191a1a"/><rect x="384.58" y="266.25" width="29.58" height="29.58" fill="#191a1a"/><rect x="384.58" y="266.25" width="29.58" height="29.58" fill="#a0243a"/><rect x="414.16666666666663" y="236.66666666666666" width="59.166666666666664" height="59.166666666666664" fill="#191a1a"/><rect x="414.17" y="236.67" width="29.58" height="29.58" fill="#551e28"/><rect x="414.17" y="236.67" width="29.58" height="29.58" fill="#191a1a"/><rect x="443.75" y="236.67" width="29.58" height="29.58" fill="#191a1a"/><rect x="443.75" y="236.67" width="29.58" height="29.58" fill="#3b1c22"/><rect x="414.17" y="266.25" width="29.58" height="29.58" fill="#2a1b1e"/><rect x="414.17" y="266.25" width="29.58" height="29.58" fill="#191a1a"/><rect x="473.3333333333333" y="236.66666666666666" width="59.166666666666664" height="59.166666666666664" fill="#191a1a"/><rect x="473.33" y="236.67" width="29.58" height="29.58" fill="#191a1a"/><rect x="473.33" y="236.67" width="29.58" height="29.58" fill="#191a1a"/><rect x="502.92" y="236.67" width="29.58" height="29.58" fill="#191a1a"/><rect x="502.92" y="236.67" width="29.58" height="29.58" fill="#201b1c"/><rect x="473.33" y="266.25" width="29.58" height="29.58" fill="#5e1f2a"/><rect x="473.33" y="266.25" width="29.58" height="29.58" fill="#742130"/><rect x="502.92" y="266.25" width="29.58" height="29.58" fill="#191a1a"/><rect x="502.92" y="266.25" width="29.58" height="29.58" fill="#241b1d"/><rect x="532.5" y="236.66666666666666" width="59.166666666666664" height="59.166666666666664" fill="#191a1a"/><rect x="532.5" y="236.67" width="29.58" height="29.58" fill="#641f2c"/><rect x="532.5" y="236.67" width="29.58" height="29.58" fill="#191a1a"/><rect x="562.08" y="236.67" width="29.58" height="29.58" fill="#571e29"/><rect x="562.08" y="236.67" width="29.58" height="29.58" fill="#191a1a"/><rect x="532.5" y="266.25" width="29.58" height="29.58" fill="#2f1c1f"/><rect x="532.5" y="266.25" width="29.58" height="29.58" fill="#191a1a"/><rect x="562.08" y="266.25" width="29.58" height="29.58" fill="#3d1d23"/><rect x="562.08" y="266.25" width="29.58" height="29.58" fill="#191a1a"/><rect x="591.6666666666666" y="236.66666666666666" width="59.166666666666664" height="59.166666666666664" fill="#191a1a"/><rect x="621.25" y="236.67" width="29.58" height="29.58" fill="#651f2c"/><rect x="621.25" y="236.67" width="29.58" height="29.58" fill="#191a1a"/><rect x="621.25" y="266.25" width="29.58" height="29.58" fill="#191a1a"/><rect x="621.25" y="266.25" width="29.58" height="29.58" fill="#191a1a"/><rect x="0" y="295.8333333333333" width="59.166666666666664" height="59.166666666666664" fill="#191a1a"/><rect x="0" y="295.83" width="29.58" height="29.58" fill="#3b1c22"/><rect x="0" y="295.83" width="29.58" height="29.58" fill="#191a1a"/><rect x="29.58" y="295.83" width="29.58" height="29.58" fill="#191a1a"/><rect x="29.58" y="295.83" width="29.58" height="29.58" fill="#611f2b"/><rect x="0" y="325.42" width="29.58" height="29.58" fill="#191a1a"/><rect x="0" y="325.42" width="29.58" height="29.58" fill="#191a1a"/><rect x="29.58" y="325.42" width="29.58" height="29.58" fill="#191a1a"/><rect x="29.58" y="325.42" width="29.58" height="29.58" fill="#501e27"/><rect x="59.166666666666664" y="295.8333333333333" width="59.166666666666664" height="59.166666666666664" fill="#191a1a"/><rect x="59.17" y="295.83" width="29.58" height="29.58" fill="#892235"/><rect x="59.17" y="295.83" width="29.58" height="29.58" fill="#321c20"/><rect x="88.75" y="295.83" width="29.58" height="29.58" fill="#982338"/><rect x="88.75" y="295.83" width="29.58" height="29.58" fill="#191a1a"/><rect x="59.17" y="325.42" width="29.58" height="29.58" fill="#5b1f2a"/><rect x="59.17" y="325.42" width="29.58" height="29.58" fill="#191a1a"/><rect x="88.75" y="325.42" width="29.58" height="29.58" fill="#191a1a"/><rect x="88.75" y="325.42" width="29.58" height="29.58" fill="#1e1a1b"/><rect x="118.33333333333333" y="295.8333333333333" width="59.166666666666664" height="59.166666666666664" fill="#191a1a"/><rect x="118.33" y="295.83" width="29.58" height="29.58" fill="#191a1a"/><rect x="118.33" y="295.83" width="29.58" height="29.58" fill="#862234"/><rect x="147.92" y="295.83" width="29.58" height="29.58" fill="#2b1b1e"/><rect x="147.92" y="295.83" width="29.58" height="29.58" fill="#a3243b"/><rect x="118.33" y="325.42" width="29.58" height="29.58" fill="#191a1a"/><rect x="118.33" y="325.42" width="29.58" height="29.58" fill="#191a1a"/><rect x="147.92" y="325.42" width="29.58" height="29.58" fill="#191a1a"/><rect x="147.92" y="325.42" width="29.58" height="29.58" fill="#191a1a"/><rect x="177.5" y="295.8333333333333" width="59.166666666666664" height="59.166666666666664" fill="#191a1a"/><rect x="177.5" y="295.83" width="29.58" height="29.58" fill="#191a1a"/><rect x="177.5" y="295.83" width="29.58" height="29.58" fill="#1d1a1b"/><rect x="207.08" y="295.83" width="29.58" height="29.58" fill="#191a1a"/><rect x="207.08" y="295.83" width="29.58" height="29.58" fill="#521e28"/><rect x="177.5" y="325.42" width="29.58" height="29.58" fill="#191a1a"/><rect x="177.5" y="325.42" width="29.58" height="29.58" fill="#631f2c"/><rect x="207.08" y="325.42" width="29.58" height="29.58" fill="#191a1a"/><rect x="207.08" y="325.42" width="29.58" height="29.58" fill="#5a1f29"/><rect x="236.66666666666666" y="295.8333333333333" width="59.166666666666664" height="59.166666666666664" fill="#191a1a"/><rect x="236.67" y="295.83" width="29.58" height="29.58" fill="#191a1a"/><rect x="236.67" y="295.83" width="29.58" height="29.58" fill="#862234"/><rect x="266.25" y="295.83" width="29.58" height="29.58" fill="#5f1f2b"/><rect x="266.25" y="295.83" width="29.58" height="29.58" fill="#191a1a"/><rect x="236.67" y="325.42" width="29.58" height="29.58" fill="#5e1f2a"/><rect x="236.67" y="325.42" width="29.58" height="29.58" fill="#191a1a"/><rect x="266.25" y="325.42" width="29.58" height="29.58" fill="#6e202e"/><rect x="266.25" y="325.42" width="29.58" height="29.58" fill="#191a1a"/><rect x="295.8333333333333" y="295.8333333333333" width="59.166666666666664" height="59.166666666666664" fill="#191a1a"/><rect x="295.83" y="295.83" width="29.58" height="29.58" fill="#191a1a"/><rect x="295.83" y="295.83" width="29.58" height="29.58" fill="#191a1a"/><rect x="325.42" y="295.83" width="29.58" height="29.58" fill="#2a1b1e"/><rect x="325.42" y="295.83" width="29.58" height="29.58" fill="#191a1a"/><rect x="295.83" y="325.42" width="29.58" height="29.58" fill="#191a1a"/><rect x="295.83" y="325.42" width="29.58" height="29.58" fill="#191a1a"/><rect x="325.42" y="325.42" width="29.58" height="29.58" fill="#3b1c22"/><rect x="325.42" y="325.42" width="29.58" height="29.58" fill="#371c21"/><rect x="355" y="295.8333333333333" width="59.166666666666664" height="59.166666666666664" fill="#191a1a"/><rect x="355" y="295.83" width="29.58" height="29.58" fill="#1f1a1b"/><rect x="355" y="295.83" width="29.58" height="29.58" fill="#8c2235"/><rect x="384.58" y="295.83" width="29.58" height="29.58" fill="#2c1b1f"/><rect x="384.58" y="295.83" width="29.58" height="29.58" fill="#191a1a"/><rect x="355" y="325.42" width="29.58" height="29.58" fill="#5a1f29"/><rect x="355" y="325.42" width="29.58" height="29.58" fill="#191a1a"/><rect x="384.58" y="325.42" width="29.58" height="29.58" fill="#69202d"/><rect x="384.58" y="325.42" width="29.58" height="29.58" fill="#902336"/><rect x="414.16666666666663" y="295.8333333333333" width="59.166666666666664" height="59.166666666666664" fill="#191a1a"/><rect x="414.17" y="295.83" width="29.58" height="29.58" fill="#872234"/><rect x="414.17" y="295.83" width="29.58" height="29.58" fill="#2e1c1f"/><rect x="443.75" y="295.83" width="29.58" height="29.58" fill="#2c1b1e"/><rect x="443.75" y="295.83" width="29.58" height="29.58" fill="#4a1e26"/><rect x="414.17" y="325.42" width="29.58" height="29.58" fill="#191a1a"/><rect x="414.17" y="325.42" width="29.58" height="29.58" fill="#401d23"/><rect x="443.75" y="325.42" width="29.58" height="29.58" fill="#271b1d"/><rect x="443.75" y="325.42" width="29.58" height="29.58" fill="#491d25"/><rect x="473.3333333333333" y="295.8333333333333" width="59.166666666666664" height="59.166666666666664" fill="#191a1a"/><rect x="473.33" y="295.83" width="29.58" height="29.58" fill="#191a1a"/><rect x="473.33" y="295.83" width="29.58" height="29.58" fill="#571e29"/><rect x="502.92" y="295.83" width="29.58" height="29.58" fill="#551e28"/><rect x="502.92" y="295.83" width="29.58" height="29.58" fill="#471d25"/><rect x="473.33" y="325.42" width="29.58" height="29.58" fill="#191a1a"/><rect x="473.33" y="325.42" width="29.58" height="29.58" fill="#1f1a1b"/><rect x="502.92" y="325.42" width="29.58" height="29.58" fill="#982338"/><rect x="502.92" y="325.42" width="29.58" height="29.58" fill="#541e28"/><rect x="532.5" y="295.8333333333333" width="59.166666666666664" height="59.166666666666664" fill="#191a1a"/><rect x="532.5" y="295.83" width="29.58" height="29.58" fill="#9e2439"/><rect x="532.5" y="295.83" width="29.58" height="29.58" fill="#511e27"/><rect x="562.08" y="295.83" width="29.58" height="29.58" fill="#191a1a"/><rect x="562.08" y="295.83" width="29.58" height="29.58" fill="#191a1a"/><rect x="532.5" y="325.42" width="29.58" height="29.58" fill="#67202d"/><rect x="532.5" y="325.42" width="29.58" height="29.58" fill="#792131"/><rect x="562.08" y="325.42" width="29.58" height="29.58" fill="#69202d"/><rect x="562.08" y="325.42" width="29.58" height="29.58" fill="#191a1a"/><rect x="591.6666666666666" y="295.8333333333333" width="59.166666666666664" height="59.166666666666664" fill="#191a1a"/><rect x="591.67" y="295.83" width="29.58" height="29.58" fill="#5a1f29"/><rect x="591.67" y="295.83" width="29.58" height="29.58" fill="#742130"/><rect x="621.25" y="295.83" width="29.58" height="29.58" fill="#501e27"/><rect x="621.25" y="295.83" width="29.58" height="29.58" fill="#191a1a"/><rect x="591.67" y="325.42" width="29.58" height="29.58" fill="#191a1a"/><rect x="591.67" y="325.42" width="29.58" height="29.58" fill="#4d1e26"/><rect x="621.25" y="325.42" width="29.58" height="29.58" fill="#191a1a"/><rect x="621.25" y="325.42" width="29.58" height="29.58" fill="#191a1a"/></g></svg>